<mxfile host="app.diagrams.net" modified="2024-06-18T07:16:11.771Z" agent="Mozilla/5.0 (Windows NT 10.0; Win64; x64) AppleWebKit/537.36 (KHTML, like Gecko) Chrome/126.0.0.0 Safari/537.36" etag="Ij1xOeucvg5BYmoW4uDi" version="24.5.5" type="device">
  <diagram id="R2lEEEUBdFMjLlhIrx00" name="Page-1">
    <mxGraphModel dx="2465" dy="1903" grid="1" gridSize="10" guides="1" tooltips="1" connect="1" arrows="1" fold="1" page="1" pageScale="1" pageWidth="850" pageHeight="1100" math="0" shadow="0" extFonts="Permanent Marker^https://fonts.googleapis.com/css?family=Permanent+Marker">
      <root>
        <mxCell id="0" />
        <mxCell id="1" parent="0" />
        <mxCell id="UR1eGAxbOfSySMrvAykR-1" value="GROUPS" style="rounded=0;whiteSpace=wrap;html=1;" vertex="1" parent="1">
          <mxGeometry x="-320" y="100" width="130" height="70" as="geometry" />
        </mxCell>
        <mxCell id="UR1eGAxbOfSySMrvAykR-5" value="MESSAGE" style="rounded=0;whiteSpace=wrap;html=1;" vertex="1" parent="1">
          <mxGeometry x="530" y="100" width="130" height="70" as="geometry" />
        </mxCell>
        <mxCell id="UR1eGAxbOfSySMrvAykR-7" value="" style="rounded=0;whiteSpace=wrap;html=1;" vertex="1" parent="1">
          <mxGeometry x="100" y="360" width="130" height="70" as="geometry" />
        </mxCell>
        <mxCell id="UR1eGAxbOfSySMrvAykR-10" value="LIKES" style="rounded=0;whiteSpace=wrap;html=1;" vertex="1" parent="1">
          <mxGeometry x="-290" y="500" width="130" height="70" as="geometry" />
        </mxCell>
        <mxCell id="UR1eGAxbOfSySMrvAykR-12" value="COMMENTS" style="rounded=0;whiteSpace=wrap;html=1;" vertex="1" parent="1">
          <mxGeometry x="460" y="500" width="130" height="70" as="geometry" />
        </mxCell>
        <mxCell id="UR1eGAxbOfSySMrvAykR-14" value="POST" style="text;html=1;align=center;verticalAlign=middle;whiteSpace=wrap;rounded=0;" vertex="1" parent="1">
          <mxGeometry x="110" y="370" width="110" height="50" as="geometry" />
        </mxCell>
        <mxCell id="UR1eGAxbOfSySMrvAykR-15" value="have" style="rhombus;whiteSpace=wrap;html=1;" vertex="1" parent="1">
          <mxGeometry x="-100" y="90" width="100" height="90" as="geometry" />
        </mxCell>
        <mxCell id="UR1eGAxbOfSySMrvAykR-18" value="send/&lt;div&gt;recieve&lt;/div&gt;" style="rhombus;whiteSpace=wrap;html=1;" vertex="1" parent="1">
          <mxGeometry x="325" y="90" width="100" height="90" as="geometry" />
        </mxCell>
        <mxCell id="UR1eGAxbOfSySMrvAykR-22" value="have" style="rhombus;whiteSpace=wrap;html=1;" vertex="1" parent="1">
          <mxGeometry x="100" y="220" width="120" height="80" as="geometry" />
        </mxCell>
        <mxCell id="UR1eGAxbOfSySMrvAykR-25" value="contains" style="rhombus;whiteSpace=wrap;html=1;" vertex="1" parent="1">
          <mxGeometry x="-110" y="370" width="110" height="80" as="geometry" />
        </mxCell>
        <mxCell id="UR1eGAxbOfSySMrvAykR-26" value="has" style="rhombus;whiteSpace=wrap;html=1;" vertex="1" parent="1">
          <mxGeometry x="325" y="390" width="100" height="80" as="geometry" />
        </mxCell>
        <mxCell id="UR1eGAxbOfSySMrvAykR-32" value="" style="endArrow=none;html=1;rounded=0;exitX=1;exitY=0.5;exitDx=0;exitDy=0;" edge="1" parent="1" source="UR1eGAxbOfSySMrvAykR-2">
          <mxGeometry width="50" height="50" relative="1" as="geometry">
            <mxPoint x="272.99" y="160" as="sourcePoint" />
            <mxPoint x="190" y="135" as="targetPoint" />
          </mxGeometry>
        </mxCell>
        <mxCell id="UR1eGAxbOfSySMrvAykR-33" value="" style="endArrow=none;html=1;rounded=0;entryX=0;entryY=0.5;entryDx=0;entryDy=0;exitX=1;exitY=0.5;exitDx=0;exitDy=0;" edge="1" parent="1" source="UR1eGAxbOfSySMrvAykR-1" target="UR1eGAxbOfSySMrvAykR-15">
          <mxGeometry width="50" height="50" relative="1" as="geometry">
            <mxPoint x="150" y="240" as="sourcePoint" />
            <mxPoint x="200" y="190" as="targetPoint" />
          </mxGeometry>
        </mxCell>
        <mxCell id="UR1eGAxbOfSySMrvAykR-34" value="" style="endArrow=none;html=1;rounded=0;exitX=1;exitY=0.5;exitDx=0;exitDy=0;" edge="1" parent="1" source="UR1eGAxbOfSySMrvAykR-15" target="UR1eGAxbOfSySMrvAykR-2">
          <mxGeometry width="50" height="50" relative="1" as="geometry">
            <mxPoint y="135" as="sourcePoint" />
            <mxPoint x="190" y="135" as="targetPoint" />
          </mxGeometry>
        </mxCell>
        <mxCell id="UR1eGAxbOfSySMrvAykR-2" value="USER" style="rounded=0;whiteSpace=wrap;html=1;" vertex="1" parent="1">
          <mxGeometry x="100" y="100" width="130" height="70" as="geometry" />
        </mxCell>
        <mxCell id="UR1eGAxbOfSySMrvAykR-35" value="" style="endArrow=none;html=1;rounded=0;" edge="1" parent="1" source="UR1eGAxbOfSySMrvAykR-2">
          <mxGeometry width="50" height="50" relative="1" as="geometry">
            <mxPoint x="235" y="134.37" as="sourcePoint" />
            <mxPoint x="325" y="134.37" as="targetPoint" />
          </mxGeometry>
        </mxCell>
        <mxCell id="UR1eGAxbOfSySMrvAykR-37" value="" style="endArrow=none;html=1;rounded=0;" edge="1" parent="1">
          <mxGeometry width="50" height="50" relative="1" as="geometry">
            <mxPoint x="425" y="134.37" as="sourcePoint" />
            <mxPoint x="530" y="134" as="targetPoint" />
          </mxGeometry>
        </mxCell>
        <mxCell id="UR1eGAxbOfSySMrvAykR-43" value="" style="endArrow=none;html=1;rounded=0;" edge="1" parent="1">
          <mxGeometry width="50" height="50" relative="1" as="geometry">
            <mxPoint x="160" y="220" as="sourcePoint" />
            <mxPoint x="160" y="170" as="targetPoint" />
          </mxGeometry>
        </mxCell>
        <mxCell id="UR1eGAxbOfSySMrvAykR-45" value="" style="endArrow=none;html=1;rounded=0;exitX=0.5;exitY=1;exitDx=0;exitDy=0;" edge="1" parent="1" source="UR1eGAxbOfSySMrvAykR-22">
          <mxGeometry width="50" height="50" relative="1" as="geometry">
            <mxPoint x="190" y="360" as="sourcePoint" />
            <mxPoint x="160" y="360" as="targetPoint" />
          </mxGeometry>
        </mxCell>
        <mxCell id="UR1eGAxbOfSySMrvAykR-48" value="" style="endArrow=none;html=1;rounded=0;entryX=0;entryY=0.5;entryDx=0;entryDy=0;" edge="1" parent="1" target="UR1eGAxbOfSySMrvAykR-7">
          <mxGeometry width="50" height="50" relative="1" as="geometry">
            <mxPoint y="410" as="sourcePoint" />
            <mxPoint x="50" y="360" as="targetPoint" />
          </mxGeometry>
        </mxCell>
        <mxCell id="UR1eGAxbOfSySMrvAykR-49" value="" style="endArrow=none;html=1;rounded=0;entryX=0;entryY=0.5;entryDx=0;entryDy=0;exitX=1;exitY=0.5;exitDx=0;exitDy=0;" edge="1" parent="1" source="UR1eGAxbOfSySMrvAykR-10" target="UR1eGAxbOfSySMrvAykR-25">
          <mxGeometry width="50" height="50" relative="1" as="geometry">
            <mxPoint x="-190" y="530" as="sourcePoint" />
            <mxPoint x="-140" y="480" as="targetPoint" />
          </mxGeometry>
        </mxCell>
        <mxCell id="UR1eGAxbOfSySMrvAykR-50" value="" style="endArrow=none;html=1;rounded=0;entryX=0;entryY=0.5;entryDx=0;entryDy=0;" edge="1" parent="1" target="UR1eGAxbOfSySMrvAykR-26">
          <mxGeometry width="50" height="50" relative="1" as="geometry">
            <mxPoint x="230" y="400" as="sourcePoint" />
            <mxPoint x="280" y="350" as="targetPoint" />
          </mxGeometry>
        </mxCell>
        <mxCell id="UR1eGAxbOfSySMrvAykR-51" value="" style="endArrow=none;html=1;rounded=0;entryX=0;entryY=0.5;entryDx=0;entryDy=0;" edge="1" parent="1" target="UR1eGAxbOfSySMrvAykR-12">
          <mxGeometry width="50" height="50" relative="1" as="geometry">
            <mxPoint x="425" y="430" as="sourcePoint" />
            <mxPoint x="475" y="380" as="targetPoint" />
          </mxGeometry>
        </mxCell>
        <mxCell id="UR1eGAxbOfSySMrvAykR-52" value="&lt;u&gt;G_ID&lt;/u&gt;" style="ellipse;whiteSpace=wrap;html=1;" vertex="1" parent="1">
          <mxGeometry x="-450" y="60" width="105" height="60" as="geometry" />
        </mxCell>
        <mxCell id="UR1eGAxbOfSySMrvAykR-53" value="GName" style="ellipse;whiteSpace=wrap;html=1;" vertex="1" parent="1">
          <mxGeometry x="-360" y="10" width="105" height="60" as="geometry" />
        </mxCell>
        <mxCell id="UR1eGAxbOfSySMrvAykR-55" value="Ncount" style="ellipse;whiteSpace=wrap;html=1;" vertex="1" parent="1">
          <mxGeometry x="-240" y="22.5" width="105" height="60" as="geometry" />
        </mxCell>
        <mxCell id="UR1eGAxbOfSySMrvAykR-57" value="" style="endArrow=none;html=1;rounded=0;exitX=0;exitY=0.5;exitDx=0;exitDy=0;" edge="1" parent="1" source="UR1eGAxbOfSySMrvAykR-1">
          <mxGeometry width="50" height="50" relative="1" as="geometry">
            <mxPoint x="-320" y="160" as="sourcePoint" />
            <mxPoint x="-390" y="120" as="targetPoint" />
          </mxGeometry>
        </mxCell>
        <mxCell id="UR1eGAxbOfSySMrvAykR-58" value="" style="endArrow=none;html=1;rounded=0;entryX=0.5;entryY=1;entryDx=0;entryDy=0;" edge="1" parent="1" target="UR1eGAxbOfSySMrvAykR-53">
          <mxGeometry width="50" height="50" relative="1" as="geometry">
            <mxPoint x="-270" y="100" as="sourcePoint" />
            <mxPoint x="-220" y="50" as="targetPoint" />
          </mxGeometry>
        </mxCell>
        <mxCell id="UR1eGAxbOfSySMrvAykR-59" value="" style="endArrow=none;html=1;rounded=0;entryX=0.381;entryY=1;entryDx=0;entryDy=0;entryPerimeter=0;" edge="1" parent="1" target="UR1eGAxbOfSySMrvAykR-55">
          <mxGeometry width="50" height="50" relative="1" as="geometry">
            <mxPoint x="-220" y="100" as="sourcePoint" />
            <mxPoint x="-160" y="80" as="targetPoint" />
          </mxGeometry>
        </mxCell>
        <mxCell id="UR1eGAxbOfSySMrvAykR-60" value="&lt;u&gt;User_ID&lt;/u&gt;" style="ellipse;whiteSpace=wrap;html=1;" vertex="1" parent="1">
          <mxGeometry y="32.5" width="80" height="55" as="geometry" />
        </mxCell>
        <mxCell id="UR1eGAxbOfSySMrvAykR-61" value="username" style="ellipse;whiteSpace=wrap;html=1;" vertex="1" parent="1">
          <mxGeometry x="40" y="-37.5" width="80" height="60" as="geometry" />
        </mxCell>
        <mxCell id="UR1eGAxbOfSySMrvAykR-63" value="password" style="ellipse;whiteSpace=wrap;html=1;" vertex="1" parent="1">
          <mxGeometry x="210" y="-37.5" width="80" height="60" as="geometry" />
        </mxCell>
        <mxCell id="UR1eGAxbOfSySMrvAykR-65" value="DOB" style="ellipse;whiteSpace=wrap;html=1;" vertex="1" parent="1">
          <mxGeometry x="245" y="30" width="80" height="57.5" as="geometry" />
        </mxCell>
        <mxCell id="UR1eGAxbOfSySMrvAykR-67" value="Email" style="ellipse;whiteSpace=wrap;html=1;" vertex="1" parent="1">
          <mxGeometry x="120" y="-80" width="90" height="60" as="geometry" />
        </mxCell>
        <mxCell id="UR1eGAxbOfSySMrvAykR-69" value="&lt;u&gt;M_ID&lt;/u&gt;" style="ellipse;whiteSpace=wrap;html=1;" vertex="1" parent="1">
          <mxGeometry x="410" y="-10" width="100" height="70" as="geometry" />
        </mxCell>
        <mxCell id="UR1eGAxbOfSySMrvAykR-70" value="Send_ID" style="ellipse;whiteSpace=wrap;html=1;" vertex="1" parent="1">
          <mxGeometry x="570" y="-20" width="100" height="70" as="geometry" />
        </mxCell>
        <mxCell id="UR1eGAxbOfSySMrvAykR-72" value="Rec_ID" style="ellipse;whiteSpace=wrap;html=1;" vertex="1" parent="1">
          <mxGeometry x="710" y="32.5" width="100" height="70" as="geometry" />
        </mxCell>
        <mxCell id="UR1eGAxbOfSySMrvAykR-74" value="Content" style="ellipse;whiteSpace=wrap;html=1;" vertex="1" parent="1">
          <mxGeometry x="650" y="210" width="100" height="70" as="geometry" />
        </mxCell>
        <mxCell id="UR1eGAxbOfSySMrvAykR-76" value="" style="endArrow=none;html=1;rounded=0;entryX=0;entryY=1;entryDx=0;entryDy=0;" edge="1" parent="1" target="UR1eGAxbOfSySMrvAykR-72">
          <mxGeometry width="50" height="50" relative="1" as="geometry">
            <mxPoint x="660" y="130" as="sourcePoint" />
            <mxPoint x="710" y="80" as="targetPoint" />
          </mxGeometry>
        </mxCell>
        <mxCell id="UR1eGAxbOfSySMrvAykR-78" value="" style="endArrow=none;html=1;rounded=0;entryX=0.33;entryY=0.986;entryDx=0;entryDy=0;entryPerimeter=0;" edge="1" parent="1" target="UR1eGAxbOfSySMrvAykR-70">
          <mxGeometry width="50" height="50" relative="1" as="geometry">
            <mxPoint x="590" y="102.5" as="sourcePoint" />
            <mxPoint x="640" y="52.5" as="targetPoint" />
          </mxGeometry>
        </mxCell>
        <mxCell id="UR1eGAxbOfSySMrvAykR-79" value="" style="endArrow=none;html=1;rounded=0;entryX=0.63;entryY=1.014;entryDx=0;entryDy=0;entryPerimeter=0;" edge="1" parent="1" target="UR1eGAxbOfSySMrvAykR-69">
          <mxGeometry width="50" height="50" relative="1" as="geometry">
            <mxPoint x="540" y="100" as="sourcePoint" />
            <mxPoint x="590" y="50" as="targetPoint" />
          </mxGeometry>
        </mxCell>
        <mxCell id="UR1eGAxbOfSySMrvAykR-80" value="" style="endArrow=none;html=1;rounded=0;exitX=0.28;exitY=-0.014;exitDx=0;exitDy=0;exitPerimeter=0;" edge="1" parent="1" source="UR1eGAxbOfSySMrvAykR-74">
          <mxGeometry width="50" height="50" relative="1" as="geometry">
            <mxPoint x="590" y="220" as="sourcePoint" />
            <mxPoint x="640" y="170" as="targetPoint" />
          </mxGeometry>
        </mxCell>
        <mxCell id="UR1eGAxbOfSySMrvAykR-81" value="" style="endArrow=none;html=1;rounded=0;" edge="1" parent="1">
          <mxGeometry width="50" height="50" relative="1" as="geometry">
            <mxPoint x="160" y="-20" as="sourcePoint" />
            <mxPoint x="160" y="100" as="targetPoint" />
          </mxGeometry>
        </mxCell>
        <mxCell id="UR1eGAxbOfSySMrvAykR-82" value="" style="endArrow=none;html=1;rounded=0;entryX=0;entryY=1;entryDx=0;entryDy=0;" edge="1" parent="1" target="UR1eGAxbOfSySMrvAykR-63">
          <mxGeometry width="50" height="50" relative="1" as="geometry">
            <mxPoint x="180" y="100" as="sourcePoint" />
            <mxPoint x="230" y="50" as="targetPoint" />
          </mxGeometry>
        </mxCell>
        <mxCell id="UR1eGAxbOfSySMrvAykR-83" value="" style="endArrow=none;html=1;rounded=0;entryX=0;entryY=1;entryDx=0;entryDy=0;" edge="1" parent="1" target="UR1eGAxbOfSySMrvAykR-65">
          <mxGeometry width="50" height="50" relative="1" as="geometry">
            <mxPoint x="200" y="100" as="sourcePoint" />
            <mxPoint x="250" y="50" as="targetPoint" />
          </mxGeometry>
        </mxCell>
        <mxCell id="UR1eGAxbOfSySMrvAykR-84" value="" style="endArrow=none;html=1;rounded=0;entryX=0.75;entryY=0.908;entryDx=0;entryDy=0;entryPerimeter=0;exitX=0.369;exitY=0;exitDx=0;exitDy=0;exitPerimeter=0;" edge="1" parent="1" source="UR1eGAxbOfSySMrvAykR-2" target="UR1eGAxbOfSySMrvAykR-61">
          <mxGeometry width="50" height="50" relative="1" as="geometry">
            <mxPoint x="140" y="90" as="sourcePoint" />
            <mxPoint x="180" y="50" as="targetPoint" />
          </mxGeometry>
        </mxCell>
        <mxCell id="UR1eGAxbOfSySMrvAykR-85" value="" style="endArrow=none;html=1;rounded=0;entryX=1;entryY=1;entryDx=0;entryDy=0;" edge="1" parent="1" target="UR1eGAxbOfSySMrvAykR-60">
          <mxGeometry width="50" height="50" relative="1" as="geometry">
            <mxPoint x="120" y="100" as="sourcePoint" />
            <mxPoint x="170" y="50" as="targetPoint" />
          </mxGeometry>
        </mxCell>
        <mxCell id="UR1eGAxbOfSySMrvAykR-86" value="&lt;u&gt;L_ID&lt;/u&gt;" style="ellipse;whiteSpace=wrap;html=1;" vertex="1" parent="1">
          <mxGeometry x="-302.5" y="380" width="102.5" height="75" as="geometry" />
        </mxCell>
        <mxCell id="UR1eGAxbOfSySMrvAykR-87" value="P_ID" style="ellipse;whiteSpace=wrap;html=1;" vertex="1" parent="1">
          <mxGeometry x="-447.5" y="430" width="102.5" height="75" as="geometry" />
        </mxCell>
        <mxCell id="UR1eGAxbOfSySMrvAykR-89" value="User_ID" style="ellipse;whiteSpace=wrap;html=1;" vertex="1" parent="1">
          <mxGeometry x="-432.5" y="570" width="102.5" height="75" as="geometry" />
        </mxCell>
        <mxCell id="UR1eGAxbOfSySMrvAykR-91" value="timestamp" style="ellipse;whiteSpace=wrap;html=1;" vertex="1" parent="1">
          <mxGeometry x="-270" y="630" width="102.5" height="75" as="geometry" />
        </mxCell>
        <mxCell id="UR1eGAxbOfSySMrvAykR-95" value="" style="endArrow=none;html=1;rounded=0;" edge="1" parent="1" source="UR1eGAxbOfSySMrvAykR-86">
          <mxGeometry width="50" height="50" relative="1" as="geometry">
            <mxPoint x="-150" y="450" as="sourcePoint" />
            <mxPoint x="-200" y="500" as="targetPoint" />
          </mxGeometry>
        </mxCell>
        <mxCell id="UR1eGAxbOfSySMrvAykR-96" value="" style="endArrow=none;html=1;rounded=0;" edge="1" parent="1" target="UR1eGAxbOfSySMrvAykR-87">
          <mxGeometry width="50" height="50" relative="1" as="geometry">
            <mxPoint x="-290" y="500" as="sourcePoint" />
            <mxPoint x="-400" y="540" as="targetPoint" />
          </mxGeometry>
        </mxCell>
        <mxCell id="UR1eGAxbOfSySMrvAykR-97" value="" style="endArrow=none;html=1;rounded=0;" edge="1" parent="1" source="UR1eGAxbOfSySMrvAykR-89">
          <mxGeometry width="50" height="50" relative="1" as="geometry">
            <mxPoint x="-340" y="620" as="sourcePoint" />
            <mxPoint x="-290" y="570" as="targetPoint" />
          </mxGeometry>
        </mxCell>
        <mxCell id="UR1eGAxbOfSySMrvAykR-98" value="" style="endArrow=none;html=1;rounded=0;" edge="1" parent="1" source="UR1eGAxbOfSySMrvAykR-91">
          <mxGeometry width="50" height="50" relative="1" as="geometry">
            <mxPoint x="-250" y="620" as="sourcePoint" />
            <mxPoint x="-200" y="570" as="targetPoint" />
          </mxGeometry>
        </mxCell>
        <mxCell id="UR1eGAxbOfSySMrvAykR-99" value="timestamp" style="ellipse;whiteSpace=wrap;html=1;" vertex="1" parent="1">
          <mxGeometry x="30" y="480" width="100" height="70" as="geometry" />
        </mxCell>
        <mxCell id="UR1eGAxbOfSySMrvAykR-100" value="Content" style="ellipse;whiteSpace=wrap;html=1;" vertex="1" parent="1">
          <mxGeometry x="200" y="480" width="100" height="70" as="geometry" />
        </mxCell>
        <mxCell id="UR1eGAxbOfSySMrvAykR-103" value="&lt;u&gt;P_ID&lt;/u&gt;" style="ellipse;whiteSpace=wrap;html=1;" vertex="1" parent="1">
          <mxGeometry x="-20" y="280" width="100" height="70" as="geometry" />
        </mxCell>
        <mxCell id="UR1eGAxbOfSySMrvAykR-105" value="User_ID" style="ellipse;whiteSpace=wrap;html=1;" vertex="1" parent="1">
          <mxGeometry x="245" y="280" width="100" height="70" as="geometry" />
        </mxCell>
        <mxCell id="UR1eGAxbOfSySMrvAykR-107" value="" style="endArrow=none;html=1;rounded=0;" edge="1" parent="1" target="UR1eGAxbOfSySMrvAykR-103">
          <mxGeometry width="50" height="50" relative="1" as="geometry">
            <mxPoint x="100" y="360" as="sourcePoint" />
            <mxPoint x="150" y="310" as="targetPoint" />
          </mxGeometry>
        </mxCell>
        <mxCell id="UR1eGAxbOfSySMrvAykR-108" value="" style="endArrow=none;html=1;rounded=0;" edge="1" parent="1" target="UR1eGAxbOfSySMrvAykR-105">
          <mxGeometry width="50" height="50" relative="1" as="geometry">
            <mxPoint x="230" y="360" as="sourcePoint" />
            <mxPoint x="280" y="310" as="targetPoint" />
          </mxGeometry>
        </mxCell>
        <mxCell id="UR1eGAxbOfSySMrvAykR-109" value="" style="endArrow=none;html=1;rounded=0;" edge="1" parent="1" source="UR1eGAxbOfSySMrvAykR-99">
          <mxGeometry width="50" height="50" relative="1" as="geometry">
            <mxPoint x="50" y="480" as="sourcePoint" />
            <mxPoint x="100" y="430" as="targetPoint" />
          </mxGeometry>
        </mxCell>
        <mxCell id="UR1eGAxbOfSySMrvAykR-110" value="" style="endArrow=none;html=1;rounded=0;entryX=0.5;entryY=0;entryDx=0;entryDy=0;" edge="1" parent="1" target="UR1eGAxbOfSySMrvAykR-100">
          <mxGeometry width="50" height="50" relative="1" as="geometry">
            <mxPoint x="230" y="430" as="sourcePoint" />
            <mxPoint x="280" y="380" as="targetPoint" />
          </mxGeometry>
        </mxCell>
        <mxCell id="UR1eGAxbOfSySMrvAykR-111" value="&lt;u&gt;C_ID&lt;/u&gt;" style="ellipse;whiteSpace=wrap;html=1;" vertex="1" parent="1">
          <mxGeometry x="500" y="370" width="110" height="80" as="geometry" />
        </mxCell>
        <mxCell id="UR1eGAxbOfSySMrvAykR-112" value="P_ID" style="ellipse;whiteSpace=wrap;html=1;" vertex="1" parent="1">
          <mxGeometry x="650" y="430" width="110" height="80" as="geometry" />
        </mxCell>
        <mxCell id="UR1eGAxbOfSySMrvAykR-114" value="User_ID" style="ellipse;whiteSpace=wrap;html=1;" vertex="1" parent="1">
          <mxGeometry x="670" y="540" width="110" height="80" as="geometry" />
        </mxCell>
        <mxCell id="UR1eGAxbOfSySMrvAykR-116" value="Content" style="ellipse;whiteSpace=wrap;html=1;" vertex="1" parent="1">
          <mxGeometry x="540" y="625" width="110" height="80" as="geometry" />
        </mxCell>
        <mxCell id="UR1eGAxbOfSySMrvAykR-118" value="timestamp" style="ellipse;whiteSpace=wrap;html=1;" vertex="1" parent="1">
          <mxGeometry x="380" y="620" width="110" height="80" as="geometry" />
        </mxCell>
        <mxCell id="UR1eGAxbOfSySMrvAykR-120" value="" style="endArrow=none;html=1;rounded=0;entryX=0.5;entryY=1;entryDx=0;entryDy=0;" edge="1" parent="1" target="UR1eGAxbOfSySMrvAykR-111">
          <mxGeometry width="50" height="50" relative="1" as="geometry">
            <mxPoint x="520" y="500" as="sourcePoint" />
            <mxPoint x="570" y="450" as="targetPoint" />
          </mxGeometry>
        </mxCell>
        <mxCell id="UR1eGAxbOfSySMrvAykR-121" value="" style="endArrow=none;html=1;rounded=0;" edge="1" parent="1" target="UR1eGAxbOfSySMrvAykR-112">
          <mxGeometry width="50" height="50" relative="1" as="geometry">
            <mxPoint x="590" y="530" as="sourcePoint" />
            <mxPoint x="640" y="480" as="targetPoint" />
          </mxGeometry>
        </mxCell>
        <mxCell id="UR1eGAxbOfSySMrvAykR-122" value="" style="endArrow=none;html=1;rounded=0;entryX=0;entryY=1;entryDx=0;entryDy=0;" edge="1" parent="1" target="UR1eGAxbOfSySMrvAykR-12">
          <mxGeometry width="50" height="50" relative="1" as="geometry">
            <mxPoint x="425" y="620" as="sourcePoint" />
            <mxPoint x="475" y="570" as="targetPoint" />
          </mxGeometry>
        </mxCell>
        <mxCell id="UR1eGAxbOfSySMrvAykR-123" value="" style="endArrow=none;html=1;rounded=0;entryX=0;entryY=0.5;entryDx=0;entryDy=0;" edge="1" parent="1" target="UR1eGAxbOfSySMrvAykR-114">
          <mxGeometry width="50" height="50" relative="1" as="geometry">
            <mxPoint x="590" y="570" as="sourcePoint" />
            <mxPoint x="640" y="520" as="targetPoint" />
          </mxGeometry>
        </mxCell>
        <mxCell id="UR1eGAxbOfSySMrvAykR-124" value="" style="endArrow=none;html=1;rounded=0;exitX=0.3;exitY=0.075;exitDx=0;exitDy=0;exitPerimeter=0;" edge="1" parent="1" source="UR1eGAxbOfSySMrvAykR-116">
          <mxGeometry width="50" height="50" relative="1" as="geometry">
            <mxPoint x="500" y="620" as="sourcePoint" />
            <mxPoint x="550" y="570" as="targetPoint" />
          </mxGeometry>
        </mxCell>
        <mxCell id="UR1eGAxbOfSySMrvAykR-125" value="&lt;b&gt;M&lt;/b&gt;" style="text;html=1;align=center;verticalAlign=middle;whiteSpace=wrap;rounded=0;" vertex="1" parent="1">
          <mxGeometry x="-155" y="100" width="60" height="30" as="geometry" />
        </mxCell>
        <mxCell id="UR1eGAxbOfSySMrvAykR-126" value="&lt;b&gt;N&lt;/b&gt;" style="text;html=1;align=center;verticalAlign=middle;whiteSpace=wrap;rounded=0;" vertex="1" parent="1">
          <mxGeometry x="10" y="102.5" width="60" height="30" as="geometry" />
        </mxCell>
        <mxCell id="UR1eGAxbOfSySMrvAykR-127" value="&lt;b&gt;1&lt;/b&gt;" style="text;html=1;align=center;verticalAlign=middle;whiteSpace=wrap;rounded=0;" vertex="1" parent="1">
          <mxGeometry x="265" y="102.5" width="60" height="30" as="geometry" />
        </mxCell>
        <mxCell id="UR1eGAxbOfSySMrvAykR-128" value="&lt;b&gt;N&lt;/b&gt;" style="text;html=1;align=center;verticalAlign=middle;whiteSpace=wrap;rounded=0;" vertex="1" parent="1">
          <mxGeometry x="440" y="100" width="60" height="30" as="geometry" />
        </mxCell>
        <mxCell id="UR1eGAxbOfSySMrvAykR-129" value="&lt;b&gt;1&lt;/b&gt;" style="text;html=1;align=center;verticalAlign=middle;whiteSpace=wrap;rounded=0;" vertex="1" parent="1">
          <mxGeometry x="150" y="190" width="60" height="30" as="geometry" />
        </mxCell>
        <mxCell id="UR1eGAxbOfSySMrvAykR-130" value="&lt;b&gt;N&lt;/b&gt;" style="text;html=1;align=center;verticalAlign=middle;whiteSpace=wrap;rounded=0;" vertex="1" parent="1">
          <mxGeometry x="150" y="320" width="60" height="30" as="geometry" />
        </mxCell>
        <mxCell id="UR1eGAxbOfSySMrvAykR-133" value="&lt;b&gt;N&lt;/b&gt;" style="text;html=1;align=center;verticalAlign=middle;whiteSpace=wrap;rounded=0;" vertex="1" parent="1">
          <mxGeometry x="-160" y="420" width="35" height="60" as="geometry" />
        </mxCell>
        <mxCell id="UR1eGAxbOfSySMrvAykR-134" value="&lt;b&gt;N&lt;/b&gt;" style="text;html=1;align=center;verticalAlign=middle;whiteSpace=wrap;rounded=0;" vertex="1" parent="1">
          <mxGeometry x="430" y="460" width="60" height="30" as="geometry" />
        </mxCell>
        <mxCell id="UR1eGAxbOfSySMrvAykR-135" value="&lt;b&gt;1&lt;/b&gt;" style="text;html=1;align=center;verticalAlign=middle;whiteSpace=wrap;rounded=0;" vertex="1" parent="1">
          <mxGeometry x="-10" y="380" width="60" height="30" as="geometry" />
        </mxCell>
        <mxCell id="UR1eGAxbOfSySMrvAykR-136" value="&lt;b&gt;1&lt;/b&gt;" style="text;html=1;align=center;verticalAlign=middle;whiteSpace=wrap;rounded=0;" vertex="1" parent="1">
          <mxGeometry x="270" y="390" width="60" height="30" as="geometry" />
        </mxCell>
      </root>
    </mxGraphModel>
  </diagram>
</mxfile>
